# xmcd
#
# Track frame offsets:
#	150
#	16580
#	30450
#	45745
#	60125
#	79315
#	95460
#	111182
#	125965
#	141227
#	154640
#	173237
#
# Disc length: 2519 seconds
#
# Revision: 0
# Processed by: cddbd v1.5.1PL0 Copyright (c) Steve Scherf et al.
# Submitted via: dBpowerAMP V4.0
#
DISCID=9309d50c
DTITLE=Sul Tchê - No Caminho das Bailantas
DYEAR=1900
DGENRE=Gaucha
TTITLE0=Que Balaç de Muié
TTITLE1=Resmungo da Cordeona
TTITLE2=Velha Carreta
TTITLE3=No Calor dos Teus Abraços
TTITLE4=Te Amo Demais
TTITLE5=Sacode Gaiteiro Véio
TTITLE6=Chula Brasil
TTITLE7=Quando eu te Conheci
TTITLE8=Meu Amigo
TTITLE9=Crinuda Candondeira
TTITLE10=Deusa Menina
TTITLE11=No Caminho das Bailantas
EXTD=
EXTT0=
EXTT1=
EXTT2=
EXTT3=
EXTT4=
EXTT5=
EXTT6=
EXTT7=
EXTT8=
EXTT9=
EXTT10=
EXTT11=
PLAYORDER=
